<?xml version="1.0" standalone="no"?>
<!DOCTYPE svg PUBLIC "-//W3C//DTD SVG 20010904//EN"
 "http://www.w3.org/TR/2001/REC-SVG-20010904/DTD/svg10.dtd">
<svg version="1.0" xmlns="http://www.w3.org/2000/svg"
 width="512.000000pt" height="512.000000pt" viewBox="0 0 512.000000 512.000000"
 preserveAspectRatio="xMidYMid meet">
<metadata>
Created by potrace 1.11, written by Peter Selinger 2001-2013
</metadata>
<g transform="translate(0.000000,512.000000) scale(0.100000,-0.100000)"
fill="#000000" stroke="none">
<path d="M1010 5054 c0 -3 -25 -98 -56 -212 -56 -209 -92 -344 -99 -372 -2 -8
-31 -116 -65 -240 -34 -124 -64 -238 -67 -255 -3 -16 -6 -31 -6 -31 -1 -1 -90
-25 -198 -54 l-197 -52 9 -32 c4 -17 33 -125 64 -241 101 -377 112 -424 105
-432 -4 -4 -14 -35 -22 -68 -9 -33 -55 -206 -103 -385 -48 -179 -103 -383
-122 -455 -19 -71 -77 -290 -130 -485 -52 -195 -97 -362 -98 -370 -2 -8 -9
-30 -14 -49 -6 -19 -9 -37 -7 -39 6 -5 168 -49 651 -176 116 -30 224 -60 240
-65 17 -5 66 -19 111 -31 l81 -21 12 -52 c7 -29 22 -83 32 -122 11 -38 55
-205 99 -370 77 -290 100 -373 107 -386 1 -4 40 4 85 17 46 13 94 26 108 29
14 2 41 10 60 16 19 6 67 19 105 29 201 52 529 139 760 201 143 39 312 84 375
101 63 16 117 31 120 33 5 3 13 2 240 -60 74 -20 176 -47 225 -60 50 -13 117
-31 150 -40 33 -9 67 -18 75 -20 8 -2 41 -11 73 -19 32 -9 62 -16 66 -16 4 0
18 39 31 88 12 48 35 134 50 192 16 58 34 124 40 147 12 49 -8 41 302 123 103
28 305 82 450 121 145 38 308 82 363 96 55 14 101 26 103 28 2 2 -4 29 -13 61
-9 33 -18 68 -20 79 -5 19 -35 132 -115 430 -38 143 -94 350 -176 658 -66 247
-84 313 -160 592 -37 138 -67 264 -68 280 0 17 8 55 17 85 14 46 150 551 162
600 2 8 15 57 28 107 l25 93 -42 11 c-22 6 -64 17 -93 25 -29 8 -64 17 -79 20
-15 3 -31 7 -36 10 -5 3 -18 7 -31 10 -12 2 -69 17 -127 32 l-105 28 -51 190
c-81 297 -115 427 -119 448 -3 10 -6 21 -8 23 -3 2 -49 -8 -103 -23 -55 -14
-125 -33 -156 -41 l-57 -14 -33 32 c-18 17 -62 45 -97 62 -122 58 -277 34
-378 -58 -51 -45 -96 -118 -108 -172 -5 -28 -13 -34 -48 -44 -23 -6 -72 -19
-109 -29 -36 -10 -68 -17 -70 -15 -2 2 -15 6 -28 9 -28 6 -105 27 -195 51 -33
10 -67 18 -76 20 -9 2 -47 12 -85 23 -38 11 -166 46 -284 77 -118 31 -305 81
-415 111 -110 30 -236 64 -280 75 -44 12 -111 30 -149 41 -38 11 -77 21 -88
23 -10 2 -86 22 -167 45 -151 40 -171 45 -171 34z"/>
</g>
</svg>
